<svg xmlns="http://www.w3.org/2000/svg" width="32.403" height="27.412" viewBox="0 0 32.403 27.412"><defs><style>.a{fill:#333;}.b{fill:#eeeff0;}.c{fill:#394553;}</style></defs><g transform="translate(-2015.935 -350.589)"><path class="a" d="M2042.483,360.334c0,.068,0,.137-.006.2.023-.023.049-.049.075-.072A.63.63,0,0,0,2042.483,360.334Zm0,0c0,.068,0,.137-.006.2.023-.023.049-.049.075-.072A.63.63,0,0,0,2042.483,360.334Zm0,0c0,.068,0,.137-.006.2.023-.023.049-.049.075-.072A.63.63,0,0,0,2042.483,360.334Zm0,0c0,.068,0,.137-.006.2.023-.023.049-.049.075-.072A.63.63,0,0,0,2042.483,360.334Zm0,0c0,.068,0,.137-.006.2.023-.023.049-.049.075-.072A.63.63,0,0,0,2042.483,360.334Zm0,0c0,.068,0,.137-.006.2.023-.023.049-.049.075-.072A.63.63,0,0,0,2042.483,360.334Zm0,0c0,.068,0,.137-.006.2.023-.023.049-.049.075-.072A.63.63,0,0,0,2042.483,360.334Zm0,0c0,.068,0,.137-.006.2.023-.023.049-.049.075-.072A.63.63,0,0,0,2042.483,360.334Zm0,0c0,.068,0,.137-.006.2.023-.023.049-.049.075-.072A.63.63,0,0,0,2042.483,360.334Zm0,0c0,.068,0,.137-.006.2.023-.023.049-.049.075-.072A.63.63,0,0,0,2042.483,360.334Zm0,0c0,.068,0,.137-.006.2.023-.023.049-.049.075-.072A.63.63,0,0,0,2042.483,360.334Zm0,0c0,.068,0,.137-.006.2.023-.023.049-.049.075-.072A.63.63,0,0,0,2042.483,360.334Zm0,0c0,.068,0,.137-.006.2.023-.023.049-.049.075-.072A.63.63,0,0,0,2042.483,360.334Zm0,0c0,.068,0,.137-.006.2.023-.023.049-.049.075-.072A.63.63,0,0,0,2042.483,360.334Zm0,0c0,.068,0,.137-.006.2.023-.023.049-.049.075-.072A.63.63,0,0,0,2042.483,360.334Zm0,0c0,.068,0,.137-.006.2.023-.023.049-.049.075-.072A.63.63,0,0,0,2042.483,360.334Zm0,0c0,.068,0,.137-.006.2.023-.023.049-.049.075-.072A.63.63,0,0,0,2042.483,360.334Zm0,0c0,.068,0,.137-.006.2.023-.023.049-.049.075-.072A.63.63,0,0,0,2042.483,360.334Zm0,0c0,.068,0,.137-.006.2.023-.023.049-.049.075-.072A.63.63,0,0,0,2042.483,360.334Zm0,0c0,.068,0,.137-.006.2.023-.023.049-.049.075-.072A.63.63,0,0,0,2042.483,360.334Zm0,0c0,.068,0,.137-.006.2.023-.023.049-.049.075-.072A.63.63,0,0,0,2042.483,360.334Zm3.845-4.062a8.158,8.158,0,0,1-1.9-2.88c-.211-.595-.5-1.16-.764-1.736a1.708,1.708,0,0,0-1.108-.962,2.274,2.274,0,0,0-2.411.721,1.721,1.721,0,0,0-.29,2.168c.143.263.212.575.368.832a3.248,3.248,0,0,1,.169,2.847,24.9,24.9,0,0,1-2.165,4.921c-1.648,2.857-3.79,5.135-7.124,5.97a6.777,6.777,0,0,1-3.27.5,15.347,15.347,0,0,1-8.414-5.125,9.455,9.455,0,0,1-2.152-4.3,1.647,1.647,0,0,1,.384-1.758,1.678,1.678,0,0,1,1.8.033,5.946,5.946,0,0,1,1.508,1.017,17.08,17.08,0,0,0,8.872,4.173,10.935,10.935,0,0,0,7.335-1.638.554.554,0,0,0,.25-.78.537.537,0,0,0-.783-.228c-.368.163-.715.374-1.079.549a8.675,8.675,0,0,1-4.836,1.056,15.708,15.708,0,0,1-8.775-3.809,7.687,7.687,0,0,0-2.5-1.554,2.322,2.322,0,0,0-3.36,2.379,5.17,5.17,0,0,0,.166,1.277,12.282,12.282,0,0,0,3.653,5.759,18.6,18.6,0,0,0,4.618,3.12,7.56,7.56,0,0,1-2.21-.218,8.763,8.763,0,0,0-4.28-.2,2.659,2.659,0,0,0-1.755,3.939,6.2,6.2,0,0,0,1.109,1.531,12.325,12.325,0,0,0,5.717,3.315,20.553,20.553,0,0,0,17.907-3.2,16.643,16.643,0,0,0,6.984-9.9C2048.684,361.25,2048.427,358.52,2046.328,356.271Zm.455,7.94a15.493,15.493,0,0,1-6.318,8.762c-5.574,3.858-11.625,5.038-18.151,2.72a10.02,10.02,0,0,1-4.517-3.1,1.8,1.8,0,0,1,1.332-3.234,8.548,8.548,0,0,1,2.7.325,20.1,20.1,0,0,0,11.408-1.017c.3-.107.5-.439.861-.419a15.243,15.243,0,0,0,4.5-4.433,36.667,36.667,0,0,0,2.567-5.223,5.717,5.717,0,0,0-.162-5.3c-.507-.865-.328-1.1.566-1.475a.729.729,0,0,1,1.125.471c.283.728.634,1.433.93,2.158a5.232,5.232,0,0,0,1.257,1.97C2047.273,358.592,2047.6,361.273,2046.782,364.211Zm-4.306-3.676c.023-.023.049-.049.075-.072a.63.63,0,0,0-.068-.13C2042.483,360.4,2042.483,360.47,2042.476,360.535Zm.006-.2c0,.068,0,.137-.006.2.023-.023.049-.049.075-.072A.63.63,0,0,0,2042.483,360.334Zm0,0c0,.068,0,.137-.006.2.023-.023.049-.049.075-.072A.63.63,0,0,0,2042.483,360.334Zm0,0c0,.068,0,.137-.006.2.023-.023.049-.049.075-.072A.63.63,0,0,0,2042.483,360.334Zm0,0c0,.068,0,.137-.006.2.023-.023.049-.049.075-.072A.63.63,0,0,0,2042.483,360.334Zm0,0c0,.068,0,.137-.006.2.023-.023.049-.049.075-.072A.63.63,0,0,0,2042.483,360.334Zm0,0c0,.068,0,.137-.006.2.023-.023.049-.049.075-.072A.63.63,0,0,0,2042.483,360.334Zm0,0c0,.068,0,.137-.006.2.023-.023.049-.049.075-.072A.63.63,0,0,0,2042.483,360.334Zm0,0c0,.068,0,.137-.006.2.023-.023.049-.049.075-.072A.63.63,0,0,0,2042.483,360.334Zm0,0c0,.068,0,.137-.006.2.023-.023.049-.049.075-.072A.63.63,0,0,0,2042.483,360.334Zm0,0c0,.068,0,.137-.006.2.023-.023.049-.049.075-.072A.63.63,0,0,0,2042.483,360.334Zm0,0c0,.068,0,.137-.006.2.023-.023.049-.049.075-.072A.63.63,0,0,0,2042.483,360.334Zm0,0c0,.068,0,.137-.006.2.023-.023.049-.049.075-.072A.63.63,0,0,0,2042.483,360.334Zm0,0c0,.068,0,.137-.006.2.023-.023.049-.049.075-.072A.63.63,0,0,0,2042.483,360.334Z"/><path class="a" d="M2041.025,386.208c-3.911-.168-7.516-1.046-10.509-3.673-.312-.274-.687-.565-.31-1,.4-.464.75-.121,1.095.164a14.719,14.719,0,0,0,11.21,3.213c.05,0,.1-.019.15-.023.4-.031.874-.138.965.436.1.632-.418.671-.838.727C2042.186,386.131,2041.578,386.162,2041.025,386.208Z" transform="translate(-9.526 -20.734)"/><path class="b" d="M2097.675,380.7c-.026.023-.052.049-.075.072.007-.065.007-.133.007-.2A.628.628,0,0,1,2097.675,380.7Z" transform="translate(-55.124 -20.24)"/><path class="a" d="M2056.646,377.7a12.884,12.884,0,0,1-1.073,3.39,16.58,16.58,0,0,1-12.841,9.347,20.157,20.157,0,0,1-6.955-.1c-.41-.075-.887-.14-.806-.689.091-.6.6-.51,1.03-.432a19.759,19.759,0,0,0,7.848-.146c.221-.049.436-.127.653-.192l.244-.052.231-.049c.069-.016.137-.033.205-.052a.058.058,0,0,0,.022-.007c.039-.01.078-.019.117-.032l.091-.029c.033-.013.065-.023.1-.039s.062-.023.091-.036.072-.033.107-.052a.165.165,0,0,0,.033-.016.025.025,0,0,0,.013-.007,1.3,1.3,0,0,0,.113-.065l.169-.058a14.306,14.306,0,0,0,4.722-2.821,13.3,13.3,0,0,0,4.19-6.094c.016-.049.029-.1.045-.15s.049-.091.068-.14.045-.091.065-.14c.013-.029.023-.059.036-.088s.03-.081.045-.124.023-.078.032-.117l.01-.029c.01-.036.016-.072.026-.111s.013-.075.02-.111c0-.013,0-.023.006-.036.007-.036.01-.078.013-.117.023-.023.049-.049.075-.072a.63.63,0,0,0-.068-.13c.159-.192.111-.435.173-.65.107-.351.3-.617.708-.52A.583.583,0,0,1,2056.646,377.7Z" transform="translate(-12.844 -17.768)"/><path class="c" d="M2097.675,380.7c-.026.023-.052.049-.075.072.007-.065.007-.133.007-.2A.628.628,0,0,1,2097.675,380.7Z" transform="translate(-55.124 -20.24)"/></g></svg>