<svg xmlns="http://www.w3.org/2000/svg" width="32.734" height="33.172" viewBox="0 0 32.734 33.172"><defs><style>.a{fill:#010101;}.b{fill:#010100;}</style></defs><g transform="translate(-2118.599 -72.079)"><path class="a" d="M2203.383,149.28c-.66-.418-1.078-.811-.908-1.631a.573.573,0,0,0-.242-.677c-.272-.134-.27-.336-.266-.573.005-.384.022-.767,0-1.15-.022-.324.064-.453.414-.435.553.029,1.106.012,1.66.006.918-.009,1.256-.4,1.254-1.438,0-.989-.343-1.37-1.25-1.372q-2.97-.008-5.94,0c-.885,0-1.243.354-1.248,1.229-.006,1.044,0,2.087,0,3.13,0,.159.1.4-.079.467-.51.206-.464.632-.417,1.022a1.029,1.029,0,0,1-.646,1.124,9.824,9.824,0,0,0-5.082,8.066c-.024.31.031.5.4.431.265-.047.655.185.645-.4a7.736,7.736,0,0,1,.349-2.068.555.555,0,0,1,.655-.486c2.214.022,4.428.012,6.642.012s4.428.013,6.642-.01a.572.572,0,0,1,.657.482,8.25,8.25,0,0,1-3.1,9.162,2.692,2.692,0,0,1-1.879.6c-.635-.056-1.277,0-1.915-.017-.272-.006-.406.026-.423.365-.024.492.054.747.633.674a5.2,5.2,0,0,1,1.4,0,4.057,4.057,0,0,0,3.389-1.261,10,10,0,0,0,1.283-1.33A9.474,9.474,0,0,0,2203.383,149.28Zm-5.513-5.868c-.006-.316.1-.391.4-.385.936.017,1.873.005,2.809.005.874,0,1.746,0,2.618,0,.274,0,.6-.118.584.4-.01.482-.311.361-.559.362-1.447.006-2.895.019-4.341-.006-.394-.006-.513.092-.494.49.018.358.021.641.5.544a.268.268,0,0,1,.064,0c1.524.014,1.51.014,1.507,1.518,0,.405-.093.559-.526.537-.721-.037-1.447-.028-2.169-.005-.317.01-.394-.095-.389-.4Q2197.9,144.943,2197.871,143.412Zm-.143,4.469c1.124.022,2.25.015,3.375,0,.278,0,.365.086.363.365s-.047.428-.379.416c-.573-.024-1.147-.008-1.72-.008-.551,0-1.105-.014-1.656.006-.286.01-.354-.1-.352-.366S2197.386,147.874,2197.727,147.881Zm-5.055,5.6a9.318,9.318,0,0,1,3.72-3.722,1.055,1.055,0,0,1,.556-.081q2.364-.006,4.727,0a1.047,1.047,0,0,1,.556.083,9.4,9.4,0,0,1,3.719,3.719Z" transform="translate(-62.81 -60.984)"/><path d="M2128.843,121.6a5.641,5.641,0,0,1-1.04-3.666c.054-1.169.027-2.343,0-3.514a2.5,2.5,0,0,0-2.16-2.471,16.317,16.317,0,0,0-2.425-.027c-.5.018-.666.441-.372.862.141.2.308.384.511.634-.489,0-1.044.166-1.248-.031-.647-.623-1.39-.436-2.11-.449-1.085-.02-1.393.311-1.393,1.406v18.337c0,2.108.011,4.217-.01,6.325,0,.412.1.517.519.533.5.022.522-.2.522-.595q-.017-7.571-.006-15.141c0-1.147,0-1.154,1.145-1.15.459,0,1.027.027,1.173-.44.22-.7.692-.591,1.179-.587.729,0,1.454-.1,2.034.586a1.761,1.761,0,0,0,1.365.436q.862,0,1.724,0c.3,0,.607.032.78-.3C2129.2,122.046,2129,121.821,2128.843,121.6Zm-8.156.037c-1.05-.015-1.052.006-1.054-1.068,0-2.044.01-4.089-.011-6.133,0-.4.095-.5.49-.491,1.05.015,1.051-.006,1.054,1.068q0,1.4,0,2.81c0,1.108-.018,2.215.011,3.323C2121.187,121.542,2121.083,121.645,2120.687,121.638Zm2.864-1.018c-1.362-.022-1.362.014-1.364-1.335q0-.894,0-1.788c0-.872.017-1.745-.009-2.616-.01-.344.1-.448.43-.417a3.653,3.653,0,0,0,.827,0c.436-.061.5.216.517.526.021.427-.319.191-.5.243-.3.086-.784-.256-.776.459.005.492.145.61.606.583.22-.013.583-.226.686.184s-.035.6-.515.591c-.235,0-.711-.335-.762.306-.041.513.043.8.659.711.188-.027.563-.248.635.244.075.521-.21.518-.59.514-.3,0-.729-.215-.718.444.009.489.141.623.6.583.221-.019.572-.168.667.127C2124.038,120.243,2124.166,120.63,2123.551,120.62Zm3.16,1a1.543,1.543,0,0,1-1.709-1.686c-.008-1.253-.03-2.508.005-3.76a5.11,5.11,0,0,0-.824-3.233c.481,0,.874-.031,1.259.006a1.508,1.508,0,0,1,1.344,1.587c.013,1.083.031,2.169,0,3.251a6.687,6.687,0,0,0,.863,3.836C2127.257,121.625,2126.985,121.627,2126.711,121.624Z" transform="translate(0 -34.721)"/><g transform="translate(2123.772 96.681)"><path class="a" d="M2165.48,273c-1.038,0-2.107,0-3.22,0a3.116,3.116,0,0,1-3.2-3.1c-.022-.718-.023-1.478,0-2.324a3.135,3.135,0,0,1,3.219-3.146h2.152l1.425,0h2.618a3.1,3.1,0,0,1,3.229,3.056c.036.834.035,1.664,0,2.466a3.112,3.112,0,0,1-3.179,3.042C2167.527,272.995,2166.519,273,2165.48,273Zm-2.03-7.674h-1.173a2.24,2.24,0,0,0-2.326,2.273c-.021.829-.02,1.573,0,2.274a2.221,2.221,0,0,0,2.309,2.228c2.225,0,4.272,0,6.257,0a2.213,2.213,0,0,0,2.287-2.188c.036-.775.036-1.578,0-2.386a2.214,2.214,0,0,0-2.336-2.2h-3.512v0h-1.508Z" transform="translate(-2159.041 -264.426)"/></g><path class="b" d="M2135.624,210c0,2.492-.011,4.984.009,7.476,0,.417-.106.527-.523.529s-.521-.117-.52-.53q.022-7.54,0-15.081c0-.417.106-.527.522-.528s.526.117.522.53C2135.615,204.925,2135.625,207.46,2135.624,210Z" transform="translate(-13.945 -113.182)"/><path class="a" d="M2337.123,92.07a2.556,2.556,0,1,0,2.539,2.572A2.56,2.56,0,0,0,2337.123,92.07Zm-.046,4.089a1.534,1.534,0,1,1,1.562-1.507A1.539,1.539,0,0,1,2337.077,96.159Z" transform="translate(-188.329 -17.434)"/><path class="a" d="M2302.579,72.079a2.045,2.045,0,1,0,2.068,2.053A2.056,2.056,0,0,0,2302.579,72.079Zm.047,3.065a1.021,1.021,0,1,1,1-1.031A1.023,1.023,0,0,1,2302.626,75.144Z" transform="translate(-158.684)"/><path class="a" d="M2314.361,126.027a1.791,1.791,0,1,0,1.756,1.807A1.811,1.811,0,0,0,2314.361,126.027Zm-.055,2.545a.7.7,0,0,1-.738-.778.758.758,0,1,1,1.516.042A.7.7,0,0,1,2314.306,128.573Z" transform="translate(-169.131 -47.048)"/></g></svg>