<svg xmlns="http://www.w3.org/2000/svg" width="30.552" height="34.953" viewBox="0 0 30.552 34.953"><defs><style>.a{fill:none;stroke:#333;stroke-miterlimit:10;stroke-width:1.7px;}.b{fill:#020202;}.c{fill:#040403;}</style></defs><g transform="translate(-1877.101 -79.169)"><path class="a" d="M1891.5,113.272c-1.207,0-2.413.005-3.62,0-.774,0-1.031-.3-.868-1.044a29.464,29.464,0,0,0,.49-9.393c-.1-.974-.335-1.934-.458-2.906-.057-.45-.249-.493-.651-.474a7.509,7.509,0,0,1-7.566-4.267,7.688,7.688,0,0,1,4.8-10.868,2.228,2.228,0,0,0,1.118-.812c2.94-3.329,8.271-5.3,12.515-1.069a.808.808,0,0,0,.733.318,7.42,7.42,0,0,1,7.621,3.787,7.253,7.253,0,0,1-.433,8.427,7.444,7.444,0,0,1-8.034,2.977c-.491-.1-.583.008-.7.438a30.1,30.1,0,0,0-.548,12.948c.322,1.93.322,1.941-1.65,1.94Z" transform="translate(0)"/><path class="b" d="M1944.925,126.031a.621.621,0,0,1-.973.565,1.1,1.1,0,0,0-1.555.136.577.577,0,0,1-.847-.028.623.623,0,0,1-.1-.849,2.287,2.287,0,0,1,3.318-.251A.664.664,0,0,1,1944.925,126.031Z" transform="translate(-54.836 -38.941)"/><path class="c" d="M2029.828,162.4a2.393,2.393,0,0,1-2.147,2.294c-.4.017-.717-.129-.782-.552a.617.617,0,0,1,.622-.771.99.99,0,0,0,.978-.985.622.622,0,0,1,.753-.642A.614.614,0,0,1,2029.828,162.4Z" transform="translate(-128.912 -70.747)"/><path class="b" d="M1927.82,184.6a2.227,2.227,0,0,1-1.789-.777.616.616,0,0,1-.008-.9.581.581,0,0,1,.888-.054,1.069,1.069,0,0,0,1.543.123.583.583,0,0,1,.871.183.605.605,0,0,1-.133.886A2.05,2.05,0,0,1,1927.82,184.6Z" transform="translate(-41.421 -88.879)"/><path class="b" d="M1996.232,132.023a2.338,2.338,0,0,1,2.063,1.343.619.619,0,0,1-.249.862.593.593,0,0,1-.872-.2,1.061,1.061,0,0,0-1.437-.568.594.594,0,0,1-.792-.422.622.622,0,0,1,.385-.816A2.081,2.081,0,0,1,1996.232,132.023Z" transform="translate(-101.221 -45.017)"/><path class="b" d="M1909.5,152.322a2.355,2.355,0,0,1-2.258-2.192.662.662,0,0,1,.583-.764.606.606,0,0,1,.732.594,1.063,1.063,0,0,0,1.061,1.065.579.579,0,0,1,.556.692A.628.628,0,0,1,1909.5,152.322Z" transform="translate(-25.323 -60.026)"/></g></svg>